{
  "accessors": [
    {
      "bufferView": 2,
      "componentType": 5126,
      "count": 228,
      "max": [
        46.332801818847656,
        232.4221954345703,
        119.16619873046875
      ],
      "min": [
        -46.3307991027832,
        -53.77750015258789,
        57.674598693847656
      ],
      "type": "VEC3"
    },
    {
      "bufferView": 2,
      "byteOffset": 2736,
      "componentType": 5126,
      "count": 228,
      "max": [
        0.9993025064468384,
        0.813115656375885,
        0.9815866351127625
      ],
      "min": [
        -0.9990903735160828,
        -0.04320159927010536,
        -0.1987091600894928
      ],
      "type": "VEC3"
    },
    {
      "bufferView": 1,
      "componentType": 5126,
      "count": 228,
      "max": [
        0.992900013923645,
        0.9943000078201294
      ],
      "min": [
        0.003599999938160181,
        0.0333000011742115
      ],
      "type": "VEC2"
    },
    {
      "bufferView": 0,
      "componentType": 5125,
      "count": 654,
      "type": "SCALAR"
    },
    {
      "bufferView": 2,
      "byteOffset": 5472,
      "componentType": 5126,
      "count": 6234,
      "max": [
        481.8598937988281,
        271.970703125,
        284.25189208984375
      ],
      "min": [
        -481.8605041503906,
        -281.7712097167969,
        13.326899528503418
      ],
      "type": "VEC3"
    },
    {
      "bufferView": 2,
      "byteOffset": 80280,
      "componentType": 5126,
      "count": 6234,
      "max": [
        1.0,
        0.9999459981918335,
        0.9999219179153442
      ],
      "min": [
        -1.0,
        -0.9999630451202393,
        -0.9999802112579346
      ],
      "type": "VEC3"
    },
    {
      "bufferView": 1,
      "byteOffset": 1824,
      "componentType": 5126,
      "count": 6234,
      "max": [
        0.9980999827384949,
        0.9990000128746033
      ],
      "min": [
        0.0006000000284984708,
        0.0006000000284984708
      ],
      "type": "VEC2"
    },
    {
      "bufferView": 0,
      "byteOffset": 2616,
      "componentType": 5125,
      "count": 16338,
      "type": "SCALAR"
    },
    {
      "bufferView": 2,
      "byteOffset": 155088,
      "componentType": 5126,
      "count": 6011,
      "max": [
        249.19700622558594,
        385.9757080078125,
        242.4967041015625
      ],
      "min": [
        -249.21240234375,
        -385.9751892089844,
        -0.04989999905228615
      ],
      "type": "VEC3"
    },
    {
      "bufferView": 2,
      "byteOffset": 227220,
      "componentType": 5126,
      "count": 6011,
      "max": [
        1.0,
        0.9999449253082275,
        0.9999911785125732
      ],
      "min": [
        -1.0,
        -0.9999920129776001,
        -0.9995880722999573
      ],
      "type": "VEC3"
    },
    {
      "bufferView": 1,
      "byteOffset": 51696,
      "componentType": 5126,
      "count": 6011,
      "max": [
        0.9998000264167786,
        0.9997000098228455
      ],
      "min": [
        0.0007999999797903001,
        0.0010000000474974513
      ],
      "type": "VEC2"
    },
    {
      "bufferView": 0,
      "byteOffset": 67968,
      "componentType": 5125,
      "count": 18066,
      "type": "SCALAR"
    }
  ],
  "asset": {
    "extras": {
      "author": "Muhamad Mirza Arrafi (https://sketchfab.com/nazidefenseforceofficial)",
      "license": "CC-BY-4.0 (http://creativecommons.org/licenses/by/4.0/)",
      "source": "https://sketchfab.com/3d-models/bell-boeing-v-22-osprey-military-helicopter-cf00a682505f479a903e9600cce051f7",
      "title": "Bell Boeing V-22 Osprey Military Helicopter"
    },
    "generator": "Sketchfab-16.59.0",
    "version": "2.0"
  },
  "bufferViews": [
    {
      "buffer": 0,
      "byteLength": 140232,
      "name": "floatBufferViews",
      "target": 34963
    },
    {
      "buffer": 0,
      "byteLength": 99784,
      "byteOffset": 140232,
      "byteStride": 8,
      "name": "floatBufferViews",
      "target": 34962
    },
    {
      "buffer": 0,
      "byteLength": 299352,
      "byteOffset": 240016,
      "byteStride": 12,
      "name": "floatBufferViews",
      "target": 34962
    }
  ],
  "buffers": [
    {
      "byteLength": 539368,
      "uri": "scene.bin"
    }
  ],
  "images": [
    {
      "uri": "textures/01___Default_baseColor.jpeg"
    },
    {
      "uri": "textures/02___Default_baseColor.jpeg"
    },
    {
      "uri": "textures/03___Default_baseColor.jpeg"
    }
  ],
  "materials": [
    {
      "doubleSided": true,
      "name": "01___Default",
      "pbrMetallicRoughness": {
        "baseColorTexture": {
          "index": 0
        },
        "metallicFactor": 0.0,
        "roughnessFactor": 0.30000000000000004
      }
    },
    {
      "doubleSided": true,
      "name": "02___Default",
      "pbrMetallicRoughness": {
        "baseColorTexture": {
          "index": 1
        },
        "metallicFactor": 0.0,
        "roughnessFactor": 0.30000000000000004
      }
    },
    {
      "doubleSided": true,
      "name": "03___Default",
      "pbrMetallicRoughness": {
        "baseColorTexture": {
          "index": 2
        },
        "metallicFactor": 0.0,
        "roughnessFactor": 0.30000000000000004
      }
    }
  ],
  "meshes": [
    {
      "name": "Object_0",
      "primitives": [
        {
          "attributes": {
            "NORMAL": 1,
            "POSITION": 0,
            "TEXCOORD_0": 2
          },
          "indices": 3,
          "material": 2,
          "mode": 4
        }
      ]
    },
    {
      "name": "Object_1",
      "primitives": [
        {
          "attributes": {
            "NORMAL": 5,
            "POSITION": 4,
            "TEXCOORD_0": 6
          },
          "indices": 7,
          "material": 0,
          "mode": 4
        }
      ]
    },
    {
      "name": "Object_2",
      "primitives": [
        {
          "attributes": {
            "NORMAL": 9,
            "POSITION": 8,
            "TEXCOORD_0": 10
          },
          "indices": 11,
          "material": 1,
          "mode": 4
        }
      ]
    }
  ],
  "nodes": [
    {
      "children": [
        1
      ],
      "matrix": [
        1.0,
        0.0,
        0.0,
        0.0,
        0.0,
        2.220446049250313e-16,
        -1.0,
        0.0,
        0.0,
        1.0,
        2.220446049250313e-16,
        0.0,
        0.0,
        0.0,
        0.0,
        1.0
      ],
      "name": "Sketchfab_model"
    },
    {
      "children": [
        2,
        3,
        4
      ],
      "name": "Bell Boeing V-22 Osprey.obj.cleaner.materialmerger.gles"
    },
    {
      "mesh": 0,
      "name": "Object_2"
    },
    {
      "mesh": 1,
      "name": "Object_3"
    },
    {
      "mesh": 2,
      "name": "Object_4"
    }
  ],
  "samplers": [
    {
      "magFilter": 9729,
      "minFilter": 9987,
      "wrapS": 10497,
      "wrapT": 10497
    }
  ],
  "scene": 0,
  "scenes": [
    {
      "name": "Sketchfab_Scene",
      "nodes": [
        0
      ]
    }
  ],
  "textures": [
    {
      "sampler": 0,
      "source": 0
    },
    {
      "sampler": 0,
      "source": 1
    },
    {
      "sampler": 0,
      "source": 2
    }
  ]
}
